<?xml version="1.0" encoding="UTF-8" standalone="no"?>
<!-- Created with Inkscape (http://www.inkscape.org/) -->

<svg
   xmlns:dc="http://purl.org/dc/elements/1.1/"
   xmlns:cc="http://creativecommons.org/ns#"
   xmlns:rdf="http://www.w3.org/1999/02/22-rdf-syntax-ns#"
   xmlns:svg="http://www.w3.org/2000/svg"
   xmlns="http://www.w3.org/2000/svg"
   xmlns:xlink="http://www.w3.org/1999/xlink"
   version="1.1"
   width="1150"
   height="350"
   id="svg3941"
   style="enable-background:new">
  <defs
     id="defs3">
    <marker
       refX="0"
       refY="0"
       orient="auto"
       id="Arrow1Lstart"
       style="overflow:visible">
      <path
         d="M 0,0 5,-5 -12.5,0 5,5 0,0 z"
         transform="matrix(0.8,0,0,0.8,10,0)"
         id="path4072"
         style="fill-rule:evenodd;stroke:#000000;stroke-width:1pt" />
    </marker>
    <marker
       refX="0"
       refY="0"
       orient="auto"
       id="EmptyTriangleOutL"
       style="overflow:visible">
      <path
         d="m 5.77,0 -8.65,5 0,-10 8.65,5 z"
         transform="matrix(0.8,0,0,0.8,-4.8,0)"
         id="path4232"
         style="fill:#ffffff;fill-rule:evenodd;stroke:#000000;stroke-width:1pt" />
    </marker>
    <marker
       refX="0"
       refY="0"
       orient="auto"
       id="TriangleOutL"
       style="overflow:visible">
      <path
         d="m 5.77,0 -8.65,5 0,-10 8.65,5 z"
         transform="scale(0.8,0.8)"
         id="path4214"
         style="fill-rule:evenodd;stroke:#000000;stroke-width:1pt" />
    </marker>
    <marker
       refX="0"
       refY="0"
       orient="auto"
       id="Arrow2Mend"
       style="overflow:visible">
      <path
         d="M 8.7185878,4.0337352 -2.2072895,0.01601326 8.7185884,-4.0017078 c -1.7454984,2.3720609 -1.7354408,5.6174519 -6e-7,8.035443 z"
         transform="scale(-0.6,-0.6)"
         id="path4099"
         style="fill-rule:evenodd;stroke-width:0.625;stroke-linejoin:round" />
    </marker>
    <marker
       refX="0"
       refY="0"
       orient="auto"
       id="Arrow1Lend"
       style="overflow:visible">
      <path
         d="M 0,0 5,-5 -12.5,0 5,5 0,0 z"
         transform="matrix(-0.8,0,0,-0.8,-10,0)"
         id="path4075"
         style="fill-rule:evenodd;stroke:#000000;stroke-width:1pt" />
    </marker>
    <linearGradient
       id="linearGradient5759">
      <stop
         id="stop5761"
         style="stop-color:#cbbcad;stop-opacity:0.30952382"
         offset="0" />
      <stop
         id="stop5763"
         style="stop-color:#fcfcfc;stop-opacity:0.2857143"
         offset="0" />
      <stop
         id="stop5765"
         style="stop-color:#f3f0e8;stop-opacity:0.23015873"
         offset="1" />
    </linearGradient>
    <linearGradient
       id="linearGradient4019">
      <stop
         id="stop4021"
         style="stop-color:#cbbcad;stop-opacity:0.51587301"
         offset="0" />
      <stop
         id="stop5477"
         style="stop-color:#fcfcfc;stop-opacity:0.29365081"
         offset="0.42337328" />
      <stop
         id="stop4023"
         style="stop-color:#f3f0e8;stop-opacity:0.3888889"
         offset="1" />
    </linearGradient>
    <filter
       x="-0.029648861"
       y="-0.50640255"
       width="1.0592977"
       height="2.0128052"
       color-interpolation-filters="sRGB"
       id="filter5071">
      <feGaussianBlur
         id="feGaussianBlur5073"
         stdDeviation="4.4967982" />
    </filter>
    <filter
       x="-0.034566771"
       y="-0.59040052"
       width="1.0691335"
       height="2.1808009"
       color-interpolation-filters="sRGB"
       id="filter5128">
      <feGaussianBlur
         id="feGaussianBlur5130"
         stdDeviation="5.2426902" />
    </filter>
    <filter
       x="-0.029648861"
       y="-0.50640255"
       width="1.0592977"
       height="2.0128052"
       color-interpolation-filters="sRGB"
       id="filter5071-1">
      <feGaussianBlur
         id="feGaussianBlur5073-6"
         stdDeviation="4.4967982" />
    </filter>
    <filter
       x="-0.034566771"
       y="-0.59040052"
       width="1.0691335"
       height="2.1808009"
       color-interpolation-filters="sRGB"
       id="filter5128-3">
      <feGaussianBlur
         id="feGaussianBlur5130-7"
         stdDeviation="5.2426902" />
    </filter>
    <marker
       refX="0"
       refY="0"
       orient="auto"
       id="TriangleOutL-4"
       style="overflow:visible">
      <path
         d="m 5.77,0 -8.65,5 0,-10 8.65,5 z"
         transform="scale(0.8,0.8)"
         id="path4214-8"
         style="fill-rule:evenodd;stroke:#000000;stroke-width:1pt" />
    </marker>
    <linearGradient
       x1="744.04541"
       y1="179.59755"
       x2="743.47339"
       y2="347.56824"
       id="linearGradient6062"
       xlink:href="#linearGradient5759"
       gradientUnits="userSpaceOnUse"
       gradientTransform="translate(128.3574,604.22053)" />
    <linearGradient
       x1="246.74797"
       y1="390.27838"
       x2="243.28789"
       y2="238.75551"
       id="linearGradient6112-5"
       xlink:href="#linearGradient4019-1"
       gradientUnits="userSpaceOnUse"
       gradientTransform="matrix(0.99997037,-0.00769792,0.00769792,0.99997037,-17.438474,602.58643)" />
    <linearGradient
       id="linearGradient4019-1">
      <stop
         id="stop4021-3"
         style="stop-color:#cbbcad;stop-opacity:0.51587301"
         offset="0" />
      <stop
         id="stop5477-8"
         style="stop-color:#fcfcfc;stop-opacity:0.29365081"
         offset="0.42337328" />
      <stop
         id="stop4023-2"
         style="stop-color:#f3f0e8;stop-opacity:0.3888889"
         offset="1" />
    </linearGradient>
    <linearGradient
       x1="246.74797"
       y1="390.27838"
       x2="243.28789"
       y2="238.75551"
       id="linearGradient6703-8"
       xlink:href="#linearGradient4019-1-8"
       gradientUnits="userSpaceOnUse"
       gradientTransform="matrix(0.99997037,-0.00769792,0.00769792,0.99997037,-17.438474,602.58643)" />
    <linearGradient
       id="linearGradient4019-1-8">
      <stop
         id="stop4021-3-1"
         style="stop-color:#cbbcad;stop-opacity:0.51587301"
         offset="0" />
      <stop
         id="stop5477-8-2"
         style="stop-color:#fcfcfc;stop-opacity:0.29365081"
         offset="0.42337328" />
      <stop
         id="stop4023-2-9"
         style="stop-color:#f3f0e8;stop-opacity:0.3888889"
         offset="1" />
    </linearGradient>
    <linearGradient
       x1="246.74797"
       y1="390.27838"
       x2="243.28789"
       y2="238.75551"
       id="linearGradient6861"
       xlink:href="#linearGradient4019-1-8"
       gradientUnits="userSpaceOnUse"
       gradientTransform="matrix(0.99997037,-0.00769792,0.00769792,0.99997037,-6.9692863,600.17046)" />
  </defs>
  <metadata
     id="metadata4">
    <rdf:RDF>
      <cc:Work
         rdf:about="">
        <dc:format>image/svg+xml</dc:format>
        <dc:type
           rdf:resource="http://purl.org/dc/dcmitype/StillImage" />
        <dc:title></dc:title>
      </cc:Work>
    </rdf:RDF>
  </metadata>
  <g
     transform="translate(0,-100)"
     id="layer3"
     style="display:none">
    <rect
       width="1150.9042"
       height="649.18732"
       ry="0"
       x="0.15333268"
       y="-199.87924"
       id="rect4227-6"
       style="opacity:0.92000002;fill:#0e0e0e;fill-opacity:1;stroke:#000303;stroke-width:1.30666542;stroke-linecap:square;stroke-linejoin:round;stroke-miterlimit:4;stroke-opacity:0.4044445;stroke-dasharray:none;stroke-dashoffset:0" />
  </g>
  <g
     transform="translate(0,-702.36218)"
     id="layer1"
     style="opacity:0.54504508;display:inline">
    <path
       d="m 382.07779,835.36604 18.83784,-47.8795"
       id="path5797"
       style="opacity:0.40425535;fill:none;stroke:#000000;stroke-width:1px;stroke-linecap:butt;stroke-linejoin:miter;stroke-opacity:1;display:inline" />
    <path
       d="m 459.48096,401.93927 c 0,5.88507 -81.48516,10.65587 -182.0022,10.65587 -100.51704,0 -182.002198,-4.7708 -182.002198,-10.65587 0,-5.88507 81.485158,-10.65587 182.002198,-10.65587 100.51704,0 182.0022,4.7708 182.0022,10.65587 z"
       transform="matrix(1,0,0,1.6986301,-30.059976,290.72021)"
       id="path5737"
       style="fill:#060000;fill-opacity:1;stroke:none;display:inline;filter:url(#filter5071)" />
    <path
       d="m 407.90365,836.55798 -218.50843,2.83111 -11.09117,-1.39633 -6.19245,1.93257 -13.48105,6.22513 -52.60663,39.77807 -9.141192,1.75703 -32.200731,18.90036 -4.140363,3.88491 -2.71834,5.29949 -2.23352,16.59432 -7.09316,6.48336 -0.64278,9.29094 5.7581,5.67013 0.73626,2.85155 -1.39004,5.01085 10.054693,7.06568 21.433431,0.5493 1.97234,-22.1587 7.74694,-14.34576 11.378752,-6.51636 12.49138,-1.16763 12.87875,2.75809 9.27805,6.92742 6.16031,9.19153 2.94491,10.90858 0.81689,8.18285 0.11044,9.20221 183.52153,-2.04415 1.27248,-15.13652 3.94444,-11.54221 7.62167,-8.58703 10.58153,-5.54708 15.87272,-0.54433 11.77083,5.49756 8.00824,8.34043 4.22722,8.78796 3.83625,17.50009 17.13685,-0.84623 13.56003,-1.53299 5.66463,-6.47237 -0.0385,-4.99986 -4.32407,-4.96685 1.98332,-20.73017 -2.15927,-2.12631 -0.23094,-29.99911 -2.13647,-15.56831 -4.14577,-15.09109 -6.95594,-13.64455 -6.47034,-10.54595 z"
       id="path3089"
       style="opacity:0.40425535;fill:url(#linearGradient6861);fill-opacity:1;stroke:#000000;stroke-width:0.70866144;stroke-linecap:butt;stroke-linejoin:miter;stroke-miterlimit:4;stroke-opacity:1;stroke-dasharray:none;display:inline" />
    <path
       d="m 459.48096,401.93927 c 0,5.88507 -81.48516,10.65587 -182.0022,10.65587 -100.51704,0 -182.002198,-4.7708 -182.002198,-10.65587 0,-5.88507 81.485158,-10.65587 182.002198,-10.65587 100.51704,0 182.0022,4.7708 182.0022,10.65587 z"
       transform="matrix(1.0821052,0,0,2.1232876,565.18737,116.61503)"
       id="path5737-0-0"
       style="opacity:0.71171169;fill:#191919;fill-opacity:1;stroke:none;display:inline;filter:url(#filter5128-3)" />
    <path
       d="m 459.48096,401.93927 c 0,5.88507 -81.48516,10.65587 -182.0022,10.65587 -100.51704,0 -182.002198,-4.7708 -182.002198,-10.65587 0,-5.88507 81.485158,-10.65587 182.002198,-10.65587 100.51704,0 182.0022,4.7708 182.0022,10.65587 z"
       transform="matrix(1,0,0,1.6986301,585.62351,294.279)"
       id="path5737-3"
       style="fill:#060000;fill-opacity:1;stroke:none;display:inline;filter:url(#filter5071-1)" />
    <path
       d="m 437.05347,958.45768 2.02492,1.00161 3.28247,-0.59445 1.39163,-2.26358 -0.18637,-7.94433 3.2267,0.36865 0.72913,4.75299 -0.36048,3.42123 -1.61335,3.36544 -3.05667,1.79563 -4.05513,0.22173 -2.7099,-1.01428 c 1.50941,-1.33023 1.32705,-3.11064 1.32705,-3.11064 z"
       id="path5747"
       style="fill:#282800;fill-opacity:1;stroke:#000000;stroke-width:1px;stroke-linecap:butt;stroke-linejoin:miter;stroke-opacity:1;display:inline" />
    <path
       d="m 188.22761,839.91912 0.15647,0.0431 -16.54005,0.0878 25.99512,-8.32443 17.49684,-3.73294 21.11867,-1.70465 156.98626,-0.80183 6.0137,11.22556 z"
       id="path5649"
       style="opacity:0.43021276;fill:#f8f7f5;fill-opacity:0.32000002;stroke:#000000;stroke-width:0.70866144;stroke-linecap:butt;stroke-linejoin:miter;stroke-miterlimit:4;stroke-opacity:1;stroke-dasharray:none;display:inline" />
    <path
       d="m 142.8315,898.47778 83.90684,-3.14602 182.35557,-4.46446 -4.06722,-15.2943 -4.34433,-16.21598 -4.91901,-15.01645 -161.542,2.36073 -41.42184,1.03317 -13.90892,2.60716 -14.05173,7.25124 -11.88971,9.73466 -10.64111,9.54648 z"
       id="path3091"
       style="opacity:0.53617021;fill:#000000;fill-opacity:0.38222225;stroke:#000000;stroke-width:0.70866144;stroke-linecap:butt;stroke-linejoin:miter;stroke-miterlimit:4;stroke-opacity:1;stroke-dasharray:none;display:inline" />
    <path
       d="m 219.6973,847.1107 0.37277,48.42276 12.75037,-0.41384 -0.37325,-48.48587 z"
       id="path5535"
       style="fill:#262626;fill-opacity:0.7288895;stroke:#000000;stroke-width:0.53149605;stroke-linecap:butt;stroke-linejoin:miter;stroke-miterlimit:4;stroke-opacity:1;stroke-dasharray:none;display:inline" />
    <path
       d="m 226.51895,959.62108 -0.193,-117.85915 -37.02637,0.97819 -8.55969,1.84524 -17.18183,-0.83944"
       id="path3115"
       style="fill:none;stroke:#000000;stroke-width:0.70866144;stroke-linecap:butt;stroke-linejoin:miter;stroke-miterlimit:4;stroke-opacity:1;stroke-dasharray:none;display:inline" />
    <path
       d="m 55.589774,932.36464 38.488324,-0.17002"
       id="path3119"
       style="fill:none;stroke:#000000;stroke-width:0.70866144;stroke-linecap:butt;stroke-linejoin:miter;stroke-miterlimit:4;stroke-opacity:1;stroke-dasharray:none;display:inline" />
    <path
       d="m 48.707924,938.63717 41.930304,-0.11358"
       id="path3121"
       style="fill:none;stroke:#000000;stroke-width:0.70866144;stroke-linecap:butt;stroke-linejoin:miter;stroke-miterlimit:4;stroke-opacity:1;stroke-dasharray:none;display:inline" />
    <path
       d="m 47.923824,946.45724 38.451464,0.67085"
       id="path3123"
       style="fill:none;stroke:#000000;stroke-width:0.70866144;stroke-linecap:butt;stroke-linejoin:miter;stroke-miterlimit:4;stroke-opacity:1;stroke-dasharray:none;display:inline" />
    <path
       d="m 50.732884,950.97401 9.45633,0.0968 2.785263,1.90856 -0.60447,3.49322 -3.016463,0.86381 -5.71412,0.044"
       id="path3127"
       style="fill:none;stroke:#000000;stroke-width:0.70866144;stroke-linecap:butt;stroke-linejoin:miter;stroke-miterlimit:4;stroke-opacity:1;stroke-dasharray:none;display:inline" />
    <path
       d="m 58.021864,916.08047 26.731794,0.3449 -2.09881,5.73062 -4.29106,4.95024 -10.653511,2.30787 -12.131503,1.52201"
       id="path3129"
       style="fill:none;stroke:#000000;stroke-width:0.70866144;stroke-linecap:butt;stroke-linejoin:miter;stroke-miterlimit:4;stroke-opacity:1;stroke-dasharray:none;display:inline" />
    <path
       d="m 417.30195,891.42599 0.20003,9.58032 0.9245,27.30614"
       id="path3131"
       style="fill:none;stroke:#000000;stroke-width:0.70866144;stroke-linecap:butt;stroke-linejoin:miter;stroke-miterlimit:4;stroke-opacity:1;stroke-dasharray:none;display:inline" />
    <path
       d="m 432.96106,927.77842 -67.38596,1.48559"
       id="path3133"
       style="fill:none;stroke:#000000;stroke-width:0.70866144;stroke-linecap:butt;stroke-linejoin:miter;stroke-miterlimit:4;stroke-opacity:1;stroke-dasharray:none;display:inline" />
    <path
       d="m 397.38984,952.12947 21.50601,-0.79692 14.11199,-1.0755"
       id="path3135"
       style="fill:none;stroke:#000000;stroke-width:0.70866144;stroke-linecap:butt;stroke-linejoin:miter;stroke-miterlimit:4;stroke-opacity:1;stroke-dasharray:none;display:inline" />
    <path
       d="m 61.707494,916.24862 22.762384,0.0981 -2.06039,5.98494 -4.12077,4.51323 -9.909491,2.35473 -10.792513,1.27548 z"
       id="path5922"
       style="fill:#ffffff;fill-opacity:0.28888891;stroke:#000000;stroke-width:0.53149605;stroke-linecap:butt;stroke-linejoin:miter;stroke-miterlimit:4;stroke-opacity:1;stroke-dasharray:none;display:inline" />
    <path
       d="m 115.97236,889.0414 -39.016012,19.84893 -4.202161,2.90254 -2.87473,4.4602 -0.75796,5.30412 -0.73922,7.62497"
       id="path3143"
       style="fill:none;stroke:#000000;stroke-width:0.70866144;stroke-linecap:butt;stroke-linejoin:miter;stroke-miterlimit:4;stroke-opacity:1;stroke-dasharray:none;display:inline" />
    <path
       d="m 393.59691,961.64224 c 0,15.18783 -12.31217,27.5 -27.5,27.5 -15.18783,0 -27.5,-12.31217 -27.5,-27.5 0,-15.18784 12.31217,-27.5 27.5,-27.5 15.18783,0 27.5,12.31216 27.5,27.5 z"
       id="path3145-3"
       style="fill:#242121;fill-opacity:0.63999999;stroke:#000000;stroke-width:0.70866144;stroke-miterlimit:4;stroke-opacity:1;display:inline" />
    <path
       d="m 144.99696,962.7851 c 0,15.18783 -12.31217,27.5 -27.5,27.5 -15.18784,0 -27.500006,-12.31217 -27.500006,-27.5 0,-15.18784 12.312166,-27.5 27.500006,-27.5 15.18783,0 27.5,12.31216 27.5,27.5 z"
       id="path3145-3-1"
       style="fill:#232323;fill-opacity:0.63999999;stroke:#000000;stroke-width:0.70866144;stroke-miterlimit:4;stroke-opacity:1;display:inline" />
    <path
       d="m 202.7514,909.43052 0.0234,3.03037 1.02276,1.63367 16.03473,-0.24971 1.62978,-1.52782 0.10585,-2.65254 -1.78423,-2.1329 -15.40146,0.49738 z"
       id="path3953"
       style="opacity:0.17948722;fill:none;stroke:#000000;stroke-width:0.70866144;stroke-linecap:butt;stroke-linejoin:miter;stroke-miterlimit:4;stroke-opacity:1;stroke-dasharray:none;display:inline" />
    <path
       d="m 329.06145,914.26672 0.22153,12.37302 15.78122,-0.37403 0.032,-12.2487 z"
       id="path3955"
       style="opacity:0.50854702;fill:none;stroke:#000000;stroke-width:0.70866144;stroke-linecap:butt;stroke-linejoin:miter;stroke-miterlimit:4;stroke-opacity:1;stroke-dasharray:none;display:inline" />
    <path
       d="m 418.36214,917.62 14.26993,0.14268"
       id="path3961"
       style="fill:none;stroke:#000000;stroke-width:0.70866144;stroke-linecap:butt;stroke-linejoin:miter;stroke-miterlimit:4;stroke-opacity:1;stroke-dasharray:none;display:inline" />
    <path
       d="m 418.53701,923.93229 14.14171,-0.10886"
       id="path3963"
       style="fill:none;stroke:#000000;stroke-width:0.70866144;stroke-linecap:butt;stroke-linejoin:miter;stroke-miterlimit:4;stroke-opacity:1;stroke-dasharray:none;display:inline" />
    <path
       d="m 383.06119,961.28509 c 0,9.36912 -7.59516,16.96429 -16.96428,16.96429 -9.36912,0 -16.96429,-7.59517 -16.96429,-16.96429 0,-9.36912 7.59517,-16.96428 16.96429,-16.96428 9.36912,0 16.96428,7.59516 16.96428,16.96428 z"
       id="path3975-0"
       style="fill:#ececec;fill-opacity:0.26666667;stroke:#000000;stroke-width:0.70866144;stroke-miterlimit:4;stroke-opacity:1;stroke-dashoffset:0;display:inline" />
    <path
       d="m 134.46124,962.42795 c 0,9.36912 -7.59516,16.96429 -16.96428,16.96429 -9.36913,0 -16.9643,-7.59517 -16.9643,-16.96429 0,-9.36912 7.59517,-16.96428 16.9643,-16.96428 9.36912,0 16.96428,7.59516 16.96428,16.96428 z"
       id="path3975-0-5"
       style="fill:#eaeaea;fill-opacity:0.27555554;stroke:#000000;stroke-width:0.70866144;stroke-miterlimit:4;stroke-opacity:1;stroke-dashoffset:0;display:inline" />
    <path
       d="m 163.77612,928.31742 254.2122,-10.52864"
       id="path4015"
       style="opacity:0.14957263;fill:none;stroke:#000000;stroke-width:1px;stroke-linecap:butt;stroke-linejoin:miter;stroke-opacity:1;display:inline" />
    <path
       d="m 156.75168,943.7291 0.30623,4.15721 175.51877,-4.04251 -0.13515,-3.96726 z"
       id="path4017"
       style="opacity:0.09401712;fill:#000000;fill-opacity:1;stroke:#000000;stroke-width:1px;stroke-linecap:butt;stroke-linejoin:miter;stroke-opacity:1;display:inline" />
    <path
       d="m 115.90572,889.05164 9.5627,-4.95383 8.98408,-6.98475 23.41403,-20.53798 10.3046,-6.86524 10.32384,-4.36532 11.40899,-2.58791"
       id="path3969"
       style="fill:none;stroke:#000000;stroke-width:0.70866144;stroke-linecap:butt;stroke-linejoin:miter;stroke-miterlimit:4;stroke-opacity:1;stroke-dasharray:none;display:inline" />
    <path
       d="m 165.70804,886.12771 -8.04532,2.35472 -15.30574,-10.98873 5.10191,20.40765 21.19257,-0.39245 -3.33587,-4.51323 3.33587,-3.92455 z"
       id="path5968"
       style="fill:#0d0d0d;fill-opacity:1;stroke:#000000;stroke-width:1px;stroke-linecap:butt;stroke-linejoin:miter;stroke-opacity:1;display:inline" />
    <path
       d="m 126.04904,898.9641 -0.0522,-6.7855 16.19317,-15.26065 6.89135,21.5117 z"
       id="path5505"
       style="fill:#ffffff;fill-opacity:0.28888891;stroke:#000000;stroke-width:0.53149605;stroke-linecap:butt;stroke-linejoin:miter;stroke-miterlimit:4;stroke-opacity:1;stroke-dasharray:none;display:inline" />
    <path
       d="m 134.90957,888.61573 5.30023,-0.41962 0.47007,-4.54944 5.02242,-3.70058 3.28388,0.10105 1.80659,5.037 -0.15047,13.2598 -4.52514,2.68656 -3.93561,-2.7477 -1.29278,-3.90451 -6.187,0.0477 z"
       id="path3951"
       style="fill:#ffffff;fill-opacity:0.28888891;stroke:#000000;stroke-width:0.70866144;stroke-linecap:butt;stroke-linejoin:miter;stroke-miterlimit:4;stroke-opacity:1;stroke-dasharray:none;display:inline" />
    <path
       d="m 137.85619,874.09693 0.46233,52.04267 6.68656,6.79572 6.39513,11.54928 2.21976,9.9832 0.044,5.71413 180.87853,-1.39244"
       id="path3113"
       style="fill:none;stroke:#000000;stroke-width:0.70866144;stroke-linecap:butt;stroke-linejoin:miter;stroke-miterlimit:4;stroke-opacity:1;stroke-dasharray:none;display:inline" />
    <path
       d="m 417.27611,891.36361 -0.84216,-10.97926 -2.63125,-13.74348 -4.38829,-12.34094 -3.20596,-6.57401 -3.89875,-6.84477 -2.76669,-3.99702"
       id="path5517"
       style="fill:none;stroke:#000000;stroke-width:0.70866144;stroke-linecap:butt;stroke-linejoin:miter;stroke-miterlimit:4;stroke-opacity:1;stroke-dasharray:none;display:inline" />
    <path
       d="m 316.15868,845.67362 3.01607,47.32909 11.86797,-0.21764 -3.14428,-47.58064 z"
       id="path5527"
       style="fill:#262626;fill-opacity:0.70666665;stroke:#000000;stroke-width:0.53149605;stroke-linecap:butt;stroke-linejoin:miter;stroke-miterlimit:4;stroke-opacity:1;stroke-dasharray:none;display:inline" />
    <path
       d="m 393.24641,844.428 4.10041,14.82158 4.50583,15.8474 3.99919,15.70237 3.2829,-0.0252 -4.02146,-15.92368 -4.43588,-15.94454 -5.03293,-14.62258 z"
       id="path5529"
       style="fill:#262626;fill-opacity:1;stroke:#000000;stroke-width:0.53149605;stroke-linecap:butt;stroke-linejoin:miter;stroke-miterlimit:4;stroke-opacity:1;stroke-dasharray:none;display:inline" />
    <path
       d="m 179.50886,837.44589 1.66504,-2.35881 5.68891,-1.94255 1.52629,-1.24879 1.24878,-5.96641 0.83253,0.13876 -0.55502,5.41139 0.13875,1.11003 0.97128,0.27751 0.41626,0.83252 z"
       id="path5795"
       style="fill:#000000;fill-opacity:0.93243241;stroke:#000000;stroke-width:0.35433072;stroke-linecap:butt;stroke-linejoin:miter;stroke-miterlimit:4;stroke-opacity:1;stroke-dasharray:none;display:inline" />
    <path
       d="m 106.10812,885.85665 9.15775,0.13876 4.16261,-1.94255 4.57887,-2.63633 4.57888,-3.46884 7.35395,-6.38267 7.07644,-6.24392 7.07645,-5.82765 7.21519,-6.24393 6.10516,-4.16261 5.13389,-2.91384 -5.61953,-0.20812 -3.81573,-0.0694 -5.6889,3.74635 -11.79407,9.43526 -11.65531,8.88024 -12.76535,9.85152 z"
       id="path5829"
       style="fill:#a0a0a0;fill-opacity:0.41777781;stroke:#000000;stroke-width:0.70866144;stroke-linecap:butt;stroke-linejoin:miter;stroke-miterlimit:4;stroke-opacity:1;stroke-dasharray:none;display:inline" />
    <path
       d="m 115.7515,885.85666 -30.595202,14.70789 -11.289551,5.10023 -7.99602,5.01485 -4.220093,5.26159 -4.09528,14.50519 0.01,0.18418"
       id="path5833"
       style="fill:none;stroke:#000000;stroke-width:0.70866144;stroke-linecap:butt;stroke-linejoin:miter;stroke-miterlimit:4;stroke-opacity:1;stroke-dasharray:none;display:inline" />
    <path
       d="m 97.019748,887.66045 2.01193,0.20813 7.353952,0.48564 4.37074,0.0694 4.37074,-2.42819 -4.71762,-0.0694 -4.23199,-0.0694 z"
       id="path5898"
       style="fill:#2b2b2b;fill-opacity:1;stroke:#000000;stroke-width:0.53149605;stroke-linecap:butt;stroke-linejoin:miter;stroke-miterlimit:4;stroke-opacity:1;stroke-dasharray:none;display:inline" />
    <path
       d="m 417.60682,898.47856 14.71483,0 0,9.9972 -14.71483,0 z"
       id="rect5924"
       style="fill:#ffffff;fill-opacity:1;stroke:#202020;stroke-width:0.52456969;stroke-miterlimit:4;stroke-opacity:1;stroke-dashoffset:0;display:inline" />
    <path
       d="m 417.47157,898.34449 14.9854,0.13876 0.13876,9.85151 -14.84666,0 z"
       id="path5926"
       style="fill:#6f2323;fill-opacity:0.74222227;stroke:#000000;stroke-width:0.53149605;stroke-linecap:butt;stroke-linejoin:miter;stroke-miterlimit:4;stroke-opacity:1;stroke-dasharray:none;display:inline" />
    <path
       d="m 418.30409,928.0378 14.29164,-0.27751 0,-3.88511 -14.29164,0.13876 z"
       id="path5928"
       style="fill:#772525;fill-opacity:0.47111116;stroke:#000000;stroke-width:0.53149605;stroke-linecap:butt;stroke-linejoin:miter;stroke-miterlimit:4;stroke-opacity:1;stroke-dasharray:none;display:inline" />
    <path
       d="m 156.68159,874.94275 21.97747,21.19256"
       id="path5948"
       style="fill:none;stroke:#000000;stroke-width:2.83464575;stroke-linecap:butt;stroke-linejoin:miter;stroke-miterlimit:4;stroke-opacity:1;stroke-dasharray:none;display:inline" />
    <path
       d="m 84.882618,916.35649 103.000002,-3.5"
       id="path4748"
       style="opacity:0.1756757;fill:none;stroke:#000000;stroke-width:1px;stroke-linecap:butt;stroke-linejoin:miter;stroke-opacity:1;display:inline" />
    <path
       d="m 137.88262,926.8565 -4.5,2.5"
       id="path4750"
       style="fill:none;stroke:#000000;stroke-width:0.70866144;stroke-linecap:butt;stroke-linejoin:miter;stroke-miterlimit:4;stroke-opacity:1;stroke-dasharray:none;display:inline" />
    <path
       d="m 53.128714,961.79644 32.015644,-0.24645"
       id="path3125"
       style="fill:none;stroke:#000000;stroke-width:0.70866144;stroke-linecap:butt;stroke-linejoin:miter;stroke-miterlimit:4;stroke-opacity:1;stroke-dasharray:none;display:inline" />
    <path
       d="m 459.48096,401.93927 c 0,5.88507 -81.48516,10.65587 -182.0022,10.65587 -100.51704,0 -182.002198,-4.7708 -182.002198,-10.65587 0,-5.88507 81.485158,-10.65587 182.002198,-10.65587 100.51704,0 182.0022,4.7708 182.0022,10.65587 z"
       transform="matrix(1.0821052,0,0,2.1232876,565.18737,128.61503)"
       id="path5737-0"
       style="opacity:0.71171169;fill:#060000;fill-opacity:1;stroke:none;display:inline;filter:url(#filter5128)" />
    <path
       d="m 596.40504,945.49064 2.99023,0 0,24.68104 -2.99023,0 z"
       id="rect5821"
       style="fill:#ece8e2;fill-opacity:0.44444448;stroke:#090909;stroke-width:0.41667914;stroke-miterlimit:4;stroke-opacity:1;stroke-dashoffset:0;display:inline" />
    <path
       d="m 660.32243,950.87315 55.7286,24.60971 311.60917,0 49.4493,-24.3322 z"
       id="path5743"
       style="fill:#ddd7cf;fill-opacity:0.13333333;stroke:#000000;stroke-width:0.70866144;stroke-linecap:butt;stroke-linejoin:miter;stroke-miterlimit:4;stroke-opacity:1;stroke-dasharray:none;display:inline" />
    <path
       d="m 591.84852,954.15563 29.55455,-3.00497 38.91909,-0.0245 32.3854,13.36797 -71.05406,-0.0952 -29.86601,-6.27518 -10.8228,0.13875 -5.4345,0.0435 0,-4.24153 1.37937,-2.08131 3.13147,0 0.77674,2.40646 z"
       id="path5749"
       style="opacity:0.53191457;fill:#ddd7cf;fill-opacity:0.42666668;stroke:#000000;stroke-width:0.70866144;stroke-linecap:butt;stroke-linejoin:miter;stroke-miterlimit:4;stroke-opacity:1;stroke-dasharray:none;display:inline" />
    <path
       d="m 861.16887,975.0175 c 0,11.74254 -9.5192,21.26175 -21.26174,21.26175 -11.74254,0 -21.26175,-9.51921 -21.26175,-21.26175 0,-11.74255 9.51921,-21.26175 21.26175,-21.26175 11.74254,0 21.26174,9.5192 21.26174,21.26175 z"
       id="path3145-3-9"
       style="fill:#242121;fill-opacity:0.63999999;stroke:#000000;stroke-width:0.54790479;stroke-miterlimit:4;stroke-opacity:1;display:inline" />
    <path
       d="m 853.38769,974.84994 c 0,7.3033 -5.92048,13.2238 -13.22379,13.2238 -7.3033,0 -13.2238,-5.9205 -13.2238,-13.2238 0,-7.3033 5.9205,-13.22379 13.2238,-13.22379 7.30331,0 13.22379,5.92049 13.22379,13.22379 z"
       id="path3975-0-8"
       style="fill:#eaeaea;fill-opacity:0.28888891;stroke:#000000;stroke-width:0.55240726;stroke-miterlimit:4;stroke-opacity:1;stroke-dashoffset:0;display:inline" />
    <path
       d="m 919.26094,974.8045 c 0,11.74254 -9.5192,21.26175 -21.26174,21.26175 -11.74254,0 -21.26175,-9.51921 -21.26175,-21.26175 0,-11.74255 9.51921,-21.26175 21.26175,-21.26175 11.74254,0 21.26174,9.5192 21.26174,21.26175 z"
       id="path3145-3-9-4"
       style="fill:#242121;fill-opacity:0.63999999;stroke:#000000;stroke-width:0.54790479;stroke-miterlimit:4;stroke-opacity:1;display:inline" />
    <path
       d="m 911.47976,974.63694 c 0,7.3033 -5.92048,13.2238 -13.22379,13.2238 -7.3033,0 -13.2238,-5.9205 -13.2238,-13.2238 0,-7.3033 5.9205,-13.22379 13.2238,-13.22379 7.30331,0 13.22379,5.92049 13.22379,13.22379 z"
       id="path3975-0-8-9"
       style="fill:#eaeaea;fill-opacity:0.28888891;stroke:#000000;stroke-width:0.55240726;stroke-miterlimit:4;stroke-opacity:1;stroke-dashoffset:0;display:inline" />
    <path
       d="m 1071.6366,951.15067 5.4944,0 0,15.6982 -5.4944,0 z"
       id="rect5745"
       style="fill:#ddd7cf;fill-opacity:0.44888892;stroke:#2d2d2d;stroke-width:0.70866144;stroke-miterlimit:4;stroke-opacity:1;stroke-dashoffset:0;display:inline" />
    <path
       d="m 673.86973,784.74978 0,166.40088"
       id="path5771"
       style="opacity:0.54700856;fill:none;stroke:#000000;stroke-width:0.35433072;stroke-linecap:butt;stroke-linejoin:miter;stroke-miterlimit:4;stroke-opacity:1;stroke-dasharray:none;display:inline" />
    <path
       d="m 660.72297,785.04923 416.50833,0 0,165.50835 -416.50833,0 z"
       id="rect5556"
       style="opacity:0.40851063;fill:url(#linearGradient6062);fill-opacity:1;stroke:#090909;stroke-width:0.53149605;stroke-miterlimit:4;stroke-opacity:0.56000001;stroke-dashoffset:0;display:inline" />
    <path
       d="m 767.27399,784.74978 0,166.40088"
       id="path5773"
       style="opacity:0.54700856;fill:none;stroke:#000000;stroke-width:0.35433072;stroke-linecap:butt;stroke-linejoin:miter;stroke-miterlimit:4;stroke-opacity:1;stroke-dasharray:none;display:inline" />
    <path
       d="m 870.09717,784.74978 0,166.40088"
       id="path5775"
       style="opacity:0.54700856;fill:none;stroke:#000000;stroke-width:0.35433072;stroke-linecap:butt;stroke-linejoin:miter;stroke-miterlimit:4;stroke-opacity:1;stroke-dasharray:none;display:inline" />
    <path
       d="m 970.56563,784.74978 0,166.40088"
       id="path5777"
       style="opacity:0.54700856;fill:none;stroke:#000000;stroke-width:0.35433072;stroke-linecap:butt;stroke-linejoin:miter;stroke-miterlimit:4;stroke-opacity:1;stroke-dasharray:none;display:inline" />
    <path
       d="m 1066.3246,784.74978 0,166.40088"
       id="path5779"
       style="opacity:0.54700856;fill:none;stroke:#000000;stroke-width:0.35433072;stroke-linecap:butt;stroke-linejoin:miter;stroke-miterlimit:4;stroke-opacity:1;stroke-dasharray:none;display:inline" />
    <path
       d="m 660.19161,951.15066 -38.98981,0 -0.35878,-125.99327 0.92775,-5.30869 2.64041,-4.40069 12.78506,-11.57403 10.89013,-9.69881 12.56707,-9.87125 z"
       id="path5791"
       style="opacity:0.54468085;fill:#f9f8f7;fill-opacity:0.20444444;stroke:#000000;stroke-width:0.53149605;stroke-linecap:butt;stroke-linejoin:miter;stroke-miterlimit:4;stroke-opacity:1;stroke-dasharray:none;display:inline" />
    <path
       d="m 621.14556,950.72975 28.51911,10.92854 25.82295,7.28638 21.3913,5.25506 25.59619,3.15262 342.59589,0 12.1942,-26.6226 z"
       id="path4265"
       style="opacity:0.56468081;fill:#f8f5f0;fill-opacity:0.12444446;stroke:#000000;stroke-width:0.53149605;stroke-linecap:butt;stroke-linejoin:miter;stroke-miterlimit:4;stroke-opacity:0.26222223;stroke-dasharray:none;display:inline" />
    <path
       d="m 1053.7661,781.21769 18.8378,-47.8795"
       id="path5797-1"
       style="fill:none;stroke:#000000;stroke-width:1px;stroke-linecap:butt;stroke-linejoin:miter;stroke-opacity:1;display:inline" />
    <path
       d="m 1077.1865,784.74978 -417.44515,0 13.53969,-8.63401 20.40766,0 33.55489,0 355.56411,-0.78491 z"
       id="path5793"
       style="opacity:0.53617021;fill:#f9f8f7;fill-opacity:0.24444442;stroke:#000000;stroke-width:0.53149605;stroke-linecap:butt;stroke-linejoin:miter;stroke-miterlimit:4;stroke-opacity:1;stroke-dasharray:none;display:inline" />
    <path
       d="m 580.97218,958.41695 1.11003,1.52629 0.83253,-1.38754 1.11003,1.52629 0.97127,-1.80379 1.24879,1.52629 0.83252,-1.38754 1.24878,1.24878 1.11003,-1.11003 0,-4.57887 -0.83252,-1.94255 -0.83252,1.66504 -1.24879,-1.38754 -1.11003,1.52629 -1.38753,-1.52629 -0.69377,1.52629 -1.24879,-1.52629 -1.24878,1.94255 z"
       id="path5817"
       style="fill:#282800;fill-opacity:1;stroke:#000000;stroke-width:0.35433072;stroke-linecap:butt;stroke-linejoin:miter;stroke-miterlimit:4;stroke-opacity:1;stroke-dasharray:none;display:inline" />
    <path
       d="m 597.9297,945.06761 7.26041,0 0,0.19622 -7.26041,0 z"
       id="rect5823"
       style="fill:#ece8e2;fill-opacity:1;stroke:#090909;stroke-width:0.35433072;stroke-miterlimit:4;stroke-opacity:1;stroke-dashoffset:0;display:inline" />
    <path
       d="m 603.62031,939.18076 1.56982,0 0,6.08306 -1.56982,0 z"
       id="rect5825"
       style="fill:#ece8e2;fill-opacity:1;stroke:#090909;stroke-width:0.35433072;stroke-miterlimit:4;stroke-opacity:1;stroke-dashoffset:0;display:inline" />
    <path
       d="m 809.68744,976.63434 0.99508,-6.42596 2.60963,-8.09678 3.57392,-5.27408 6.09267,-5.35826 -6.38267,0 -3.93272,4.60269 -2.80731,5.8921 -0.97824,4.85757 -0.30974,5.40588 -0.0491,4.37856 z"
       id="path5920"
       style="opacity:0.5148936;fill:#1b1b1b;fill-opacity:1;stroke:#000000;stroke-width:0.35433072;stroke-linecap:butt;stroke-linejoin:miter;stroke-miterlimit:4;stroke-opacity:1;stroke-dasharray:none;display:inline" />
    <path
       d="m 927.81881,976.56017 -0.99508,-6.42596 -2.60963,-8.09678 -3.57392,-5.27408 -6.09267,-5.35826 6.38267,0 3.93272,4.60269 2.80731,5.8921 0.97824,4.85757 0.30974,5.40588 0.0491,4.37856 z"
       id="path5920-0"
       style="opacity:0.54468085;fill:#1b1b1b;fill-opacity:1;stroke:#000000;stroke-width:0.35433072;stroke-linecap:butt;stroke-linejoin:miter;stroke-miterlimit:4;stroke-opacity:1;stroke-dasharray:none;display:inline" />
    <path
       d="m 606.30664,969.30504 c 0,3.02695 -2.36064,5.48078 -5.27264,5.48078 -2.912,0 -5.27265,-2.45383 -5.27265,-5.48078 0,-3.02694 2.36065,-5.48077 5.27265,-5.48077 2.912,0 5.27264,2.45383 5.27264,5.48077 z"
       id="path5819"
       style="fill:#2b2b2b;fill-opacity:1;stroke:#090909;stroke-width:0.35433072;stroke-miterlimit:4;stroke-opacity:1;stroke-dashoffset:0;display:inline" />
    <path
       d="m 767.27399,952.30515 0,24.75254"
       id="path5773-9"
       style="opacity:0.54700856;fill:none;stroke:#000000;stroke-width:0.13665983;stroke-linecap:butt;stroke-linejoin:miter;stroke-miterlimit:4;stroke-opacity:1;stroke-dasharray:none;display:inline" />
    <path
       d="m 970.54167,951.21683 0,24.75254"
       id="path5773-9-8"
       style="opacity:0.54700856;fill:none;stroke:#000000;stroke-width:0.13665983;stroke-linecap:butt;stroke-linejoin:miter;stroke-miterlimit:4;stroke-opacity:1;stroke-dasharray:none;display:inline" />
    <path
       d="m 730.38319,951.35093 8.63401,0 0,3.13964 -8.63401,0 z"
       id="rect5900"
       style="fill:#ffa62a;fill-opacity:1;stroke:#202020;stroke-width:0.17716534;stroke-miterlimit:4;stroke-opacity:1;stroke-dashoffset:0;display:inline" />
    <path
       d="m 991.17005,951.35801 8.63401,0 0,3.13964 -8.63401,0 z"
       id="rect5900-8"
       style="fill:#ffa62a;fill-opacity:1;stroke:#202020;stroke-width:0.17716534;stroke-miterlimit:4;stroke-opacity:1;stroke-dashoffset:0;display:inline" />
    <path
       d="m 1060.5727,971.31957 7.1483,-14.5769"
       id="path7821"
       style="opacity:0.55982905;fill:none;stroke:#000000;stroke-width:1.65814078;stroke-linecap:butt;stroke-linejoin:miter;stroke-miterlimit:4;stroke-opacity:1;stroke-dasharray:none;display:inline" />
    <path
       d="m 1055.4244,971.31957 7.1483,-14.5769"
       id="path7821-0"
       style="opacity:0.55982905;fill:none;stroke:#000000;stroke-width:1.65814078;stroke-linecap:butt;stroke-linejoin:miter;stroke-miterlimit:4;stroke-opacity:1;stroke-dasharray:none;display:inline" />
    <path
       d="m 1050.1683,971.31957 7.1483,-14.5769"
       id="path7821-8"
       style="opacity:0.55982905;fill:none;stroke:#000000;stroke-width:1.65814078;stroke-linecap:butt;stroke-linejoin:miter;stroke-miterlimit:4;stroke-opacity:1;stroke-dasharray:none;display:inline" />
    <text
       x="846.12445"
       y="918.82648"
       id="text3982"
       xml:space="preserve"
       style="font-size:16px;font-style:normal;font-weight:normal;line-height:125%;letter-spacing:0px;word-spacing:0px;opacity:0.70270272;fill:#ffffff;fill-opacity:1;stroke:#000000;stroke-opacity:1;font-family:Sans"><tspan
         x="846.12445"
         y="918.82648"
         id="tspan3984"
         style="font-style:normal;font-variant:normal;font-weight:bold;font-stretch:normal;letter-spacing:-0.99000001px;fill:#000000;fill-opacity:1;stroke:none;font-family:Cheq;-inkscape-font-specification:Cheq Bold" /></text>
    <path
       d="m 1056.1208,896.99188 0,-46.30968 -417.57202,0 11.95185,46.30968 z"
       id="path5789"
       style="opacity:0.56170211;fill:#000000;fill-opacity:0.28444447;stroke:#000000;stroke-width:1px;stroke-linecap:butt;stroke-linejoin:miter;stroke-opacity:1;display:inline;enable-background:new" />
  </g>
  <g
     transform="translate(0,-300)"
     id="layer2"
     style="display:inline">
    <path
       d="m 1076.6958,390.16398 1.4745,0 0,10.42788 -1.4745,0 z"
       id="rect5825-9"
       style="fill:#ece8e2;fill-opacity:1;stroke:#110010;stroke-width:0.44962218;stroke-miterlimit:4;stroke-opacity:1;stroke-dashoffset:0;display:inline;enable-background:new" />
    <path
       d="m 1076.6958,528.91771 1.4745,0 0,10.42788 -1.4745,0 z"
       id="rect5825-9-9"
       style="fill:#ece8e2;fill-opacity:1;stroke:#090909;stroke-width:0.44962218;stroke-miterlimit:4;stroke-opacity:1;stroke-dashoffset:0;display:inline;enable-background:new" />
    <path
       d="m 1076.6958,460.65086 1.4745,0 0,10.42788 -1.4745,0 z"
       id="rect5825-9-4"
       style="fill:#ece8e2;fill-opacity:1;stroke:#090909;stroke-width:0.44962218;stroke-miterlimit:4;stroke-opacity:1;stroke-dashoffset:0;display:inline;enable-background:new" />
  </g>
</svg>
